<svg aria-roledescription="er" role="graphics-document document" viewBox="0 0 472.15826416015625 468" style="max-width: 472.158px; background-color: white;" xmlns:xlink="http://www.w3.org/1999/xlink" xmlns="http://www.w3.org/2000/svg" width="100%" id="mermaid-0"><style>#mermaid-0{font-family:"trebuchet ms",verdana,arial,sans-serif;font-size:16px;fill:#000000;}#mermaid-0 .error-icon{fill:#552222;}#mermaid-0 .error-text{fill:#552222;stroke:#552222;}#mermaid-0 .edge-thickness-normal{stroke-width:2px;}#mermaid-0 .edge-thickness-thick{stroke-width:3.5px;}#mermaid-0 .edge-pattern-solid{stroke-dasharray:0;}#mermaid-0 .edge-pattern-dashed{stroke-dasharray:3;}#mermaid-0 .edge-pattern-dotted{stroke-dasharray:2;}#mermaid-0 .marker{fill:#000000;stroke:#000000;}#mermaid-0 .marker.cross{stroke:#000000;}#mermaid-0 svg{font-family:"trebuchet ms",verdana,arial,sans-serif;font-size:16px;}#mermaid-0 .entityBox{fill:#cde498;stroke:#13540c;}#mermaid-0 .attributeBoxOdd{fill:#ffffff;stroke:#13540c;}#mermaid-0 .attributeBoxEven{fill:#f2f2f2;stroke:#13540c;}#mermaid-0 .relationshipLabelBox{fill:hsl(78.1578947368, 58.4615384615%, 84.5098039216%);opacity:0.7;background-color:hsl(78.1578947368, 58.4615384615%, 84.5098039216%);}#mermaid-0 .relationshipLabelBox rect{opacity:0.5;}#mermaid-0 .relationshipLine{stroke:#000000;}#mermaid-0 .entityTitleText{text-anchor:middle;font-size:18px;fill:#000000;}#mermaid-0 :root{--mermaid-font-family:"trebuchet ms",verdana,arial,sans-serif;}</style><g/><defs><marker orient="auto" markerHeight="18" markerWidth="18" refY="9" refX="0" id="ONLY_ONE_START"><path d="M9,0 L9,18 M15,0 L15,18" fill="none" stroke="gray"/></marker></defs><defs><marker orient="auto" markerHeight="18" markerWidth="18" refY="9" refX="18" id="ONLY_ONE_END"><path d="M3,0 L3,18 M9,0 L9,18" fill="none" stroke="gray"/></marker></defs><defs><marker orient="auto" markerHeight="18" markerWidth="30" refY="9" refX="0" id="ZERO_OR_ONE_START"><circle r="6" cy="9" cx="21" fill="white" stroke="gray"/><path d="M9,0 L9,18" fill="none" stroke="gray"/></marker></defs><defs><marker orient="auto" markerHeight="18" markerWidth="30" refY="9" refX="30" id="ZERO_OR_ONE_END"><circle r="6" cy="9" cx="9" fill="white" stroke="gray"/><path d="M21,0 L21,18" fill="none" stroke="gray"/></marker></defs><defs><marker orient="auto" markerHeight="36" markerWidth="45" refY="18" refX="18" id="ONE_OR_MORE_START"><path d="M0,18 Q 18,0 36,18 Q 18,36 0,18 M42,9 L42,27" fill="none" stroke="gray"/></marker></defs><defs><marker orient="auto" markerHeight="36" markerWidth="45" refY="18" refX="27" id="ONE_OR_MORE_END"><path d="M3,9 L3,27 M9,18 Q27,0 45,18 Q27,36 9,18" fill="none" stroke="gray"/></marker></defs><defs><marker orient="auto" markerHeight="36" markerWidth="57" refY="18" refX="18" id="ZERO_OR_MORE_START"><circle r="6" cy="18" cx="48" fill="white" stroke="gray"/><path d="M0,18 Q18,0 36,18 Q18,36 0,18" fill="none" stroke="gray"/></marker></defs><defs><marker orient="auto" markerHeight="36" markerWidth="57" refY="18" refX="39" id="ZERO_OR_MORE_END"><circle r="6" cy="18" cx="9" fill="white" stroke="gray"/><path d="M21,18 Q39,0 57,18 Q39,36 21,18" fill="none" stroke="gray"/></marker></defs><path style="stroke: gray; fill: none;" marker-start="url(#ZERO_OR_MORE_START)" marker-end="url(#ZERO_OR_MORE_END)" d="M291.6227889443464,273L282.20357381511286,281.3333333333333C272.78435868587934,289.6666666666667,253.94592842741235,306.3333333333333,233.948386300876,323C213.95084417433964,339.6666666666667,192.794190179734,356.3333333333333,182.21586318243115,364.6666666666667L171.63753618512834,373" class="er relationshipLine"/><path style="stroke: gray; fill: none;" marker-start="url(#ZERO_OR_MORE_START)" marker-end="url(#ZERO_OR_MORE_END)" d="M364.0531240045068,273L368.50945199024653,281.3333333333333C372.9657799759863,289.6666666666667,381.8784359474658,306.3333333333333,386.3347639332055,323C390.7910919189453,339.6666666666667,390.7910919189453,356.3333333333333,390.7910919189453,364.6666666666667L390.7910919189453,373" class="er relationshipLine"/><path style="stroke: gray; fill: none;" marker-start="url(#ZERO_OR_MORE_START)" marker-end="url(#ONLY_ONE_END)" d="M390.7910919189453,86L390.7910919189453,94.33333333333333C390.7910919189453,102.66666666666667,390.7910919189453,119.33333333333333,386.3347639332055,136C381.8784359474658,152.66666666666666,372.9657799759863,169.33333333333334,368.50945199024653,177.66666666666666L364.0531240045068,186" class="er relationshipLine"/><path style="stroke: gray; fill: none;" marker-start="url(#ZERO_OR_MORE_START)" marker-end="url(#ZERO_OR_MORE_END)" d="M74.03506469726562,262.5L74.03506469726562,272.5833333333333C74.03506469726562,282.6666666666667,74.03506469726562,302.8333333333333,78.79696945917038,321.25C83.55887422107514,339.6666666666667,93.08268374488466,356.3333333333333,97.84458850678944,364.6666666666667L102.6064932686942,373" class="er relationshipLine"/><path style="stroke: gray; fill: none;" marker-start="url(#ZERO_OR_MORE_START)" marker-end="url(#ONLY_ONE_END)" d="M110.48084782979575,75.5L104.40655064104072,85.58333333333333C98.33225345228571,95.66666666666667,86.18365907477566,115.83333333333333,80.10936188602064,136C74.03506469726562,156.16666666666666,74.03506469726562,176.33333333333334,74.03506469726562,186.41666666666666L74.03506469726562,196.5" class="er relationshipLine"/><path style="stroke: gray; fill: none;" marker-start="url(#ZERO_OR_MORE_START)" marker-end="url(#ONLY_ONE_END)" d="M154.14506172272095,75.5L167.638801130425,85.58333333333333C181.13254053812906,95.66666666666667,208.12001935353717,115.83333333333333,231.03297389047478,134.25C253.94592842741235,152.66666666666666,272.78435868587934,169.33333333333334,282.20357381511286,177.66666666666666L291.6227889443464,186" class="er relationshipLine"/><g transform="translate(272.68128967285156,186 )" id="entity-habits-59333331-6c3a-54f1-a56e-d211c6383727"><rect height="87" width="136.2196044921875" y="0" x="0" class="er entityBox"/><text style="dominant-baseline: middle; text-anchor: middle; font-size: 12px;" transform="translate(68.10980224609375,12)" y="0" x="0" id="text-entity-habits-59333331-6c3a-54f1-a56e-d211c6383727" class="er entityLabel">habits</text><rect height="21" width="54.113128662109375" y="24" x="0" class="er attributeBoxOdd"/><text style="dominant-baseline: middle; font-size: 10.2px;" transform="translate(5,34.5)" y="0" x="0" id="text-entity-habits-59333331-6c3a-54f1-a56e-d211c6383727-attr-1-type" class="er entityLabel">String</text><rect height="21" width="58.311492919921875" y="24" x="54.113128662109375" class="er attributeBoxOdd"/><text style="dominant-baseline: middle; font-size: 10.2px;" transform="translate(59.113128662109375,34.5)" y="0" x="0" id="text-entity-habits-59333331-6c3a-54f1-a56e-d211c6383727-attr-1-name" class="er entityLabel">id</text><rect height="21" width="23.79498291015625" y="24" x="112.42462158203125" class="er attributeBoxOdd"/><text style="dominant-baseline: middle; font-size: 10.2px;" transform="translate(117.42462158203125,34.5)" y="0" x="0" id="text-entity-habits-59333331-6c3a-54f1-a56e-d211c6383727-attr-1-key" class="er entityLabel">PK</text><rect height="21" width="54.113128662109375" y="45" x="0" class="er attributeBoxEven"/><text style="dominant-baseline: middle; font-size: 10.2px;" transform="translate(5,55.5)" y="0" x="0" id="text-entity-habits-59333331-6c3a-54f1-a56e-d211c6383727-attr-2-type" class="er entityLabel">String</text><rect height="21" width="58.311492919921875" y="45" x="54.113128662109375" class="er attributeBoxEven"/><text style="dominant-baseline: middle; font-size: 10.2px;" transform="translate(59.113128662109375,55.5)" y="0" x="0" id="text-entity-habits-59333331-6c3a-54f1-a56e-d211c6383727-attr-2-name" class="er entityLabel">title</text><rect height="21" width="23.79498291015625" y="45" x="112.42462158203125" class="er attributeBoxEven"/><text style="dominant-baseline: middle; font-size: 10.2px;" transform="translate(117.42462158203125,55.5)" y="0" x="0" id="text-entity-habits-59333331-6c3a-54f1-a56e-d211c6383727-attr-2-key" class="er entityLabel"/><rect height="21" width="54.113128662109375" y="66" x="0" class="er attributeBoxOdd"/><text style="dominant-baseline: middle; font-size: 10.2px;" transform="translate(5,76.5)" y="0" x="0" id="text-entity-habits-59333331-6c3a-54f1-a56e-d211c6383727-attr-3-type" class="er entityLabel">DateTime</text><rect height="21" width="58.311492919921875" y="66" x="54.113128662109375" class="er attributeBoxOdd"/><text style="dominant-baseline: middle; font-size: 10.2px;" transform="translate(59.113128662109375,76.5)" y="0" x="0" id="text-entity-habits-59333331-6c3a-54f1-a56e-d211c6383727-attr-3-name" class="er entityLabel">created_at</text><rect height="21" width="23.79498291015625" y="66" x="112.42462158203125" class="er attributeBoxOdd"/><text style="dominant-baseline: middle; font-size: 10.2px;" transform="translate(117.42462158203125,76.5)" y="0" x="0" id="text-entity-habits-59333331-6c3a-54f1-a56e-d211c6383727-attr-3-key" class="er entityLabel"/></g><g transform="translate(329.4239044189453,20 )" id="entity-habitweekdays-c488fb80-c3d4-506f-b902-5c8dc46a0a5a"><rect height="66" width="122.734375" y="0" x="0" class="er entityBox"/><text style="dominant-baseline: middle; text-anchor: middle; font-size: 12px;" transform="translate(61.3671875,12)" y="0" x="0" id="text-entity-habitweekdays-c488fb80-c3d4-506f-b902-5c8dc46a0a5a" class="er entityLabel">habit_week_days</text><rect height="21" width="38.351216634114586" y="24" x="0" class="er attributeBoxOdd"/><text style="dominant-baseline: middle; font-size: 10.2px;" transform="translate(5,34.5)" y="0" x="0" id="text-entity-habitweekdays-c488fb80-c3d4-506f-b902-5c8dc46a0a5a-attr-1-type" class="er entityLabel">String</text><rect height="21" width="59.18401082356771" y="24" x="38.351216634114586" class="er attributeBoxOdd"/><text style="dominant-baseline: middle; font-size: 10.2px;" transform="translate(43.351216634114586,34.5)" y="0" x="0" id="text-entity-habitweekdays-c488fb80-c3d4-506f-b902-5c8dc46a0a5a-attr-1-name" class="er entityLabel">id</text><rect height="21" width="25.199147542317707" y="24" x="97.5352274576823" class="er attributeBoxOdd"/><text style="dominant-baseline: middle; font-size: 10.2px;" transform="translate(102.5352274576823,34.5)" y="0" x="0" id="text-entity-habitweekdays-c488fb80-c3d4-506f-b902-5c8dc46a0a5a-attr-1-key" class="er entityLabel">PK</text><rect height="21" width="38.351216634114586" y="45" x="0" class="er attributeBoxEven"/><text style="dominant-baseline: middle; font-size: 10.2px;" transform="translate(5,55.5)" y="0" x="0" id="text-entity-habitweekdays-c488fb80-c3d4-506f-b902-5c8dc46a0a5a-attr-2-type" class="er entityLabel">Int</text><rect height="21" width="59.18401082356771" y="45" x="38.351216634114586" class="er attributeBoxEven"/><text style="dominant-baseline: middle; font-size: 10.2px;" transform="translate(43.351216634114586,55.5)" y="0" x="0" id="text-entity-habitweekdays-c488fb80-c3d4-506f-b902-5c8dc46a0a5a-attr-2-name" class="er entityLabel">week_day</text><rect height="21" width="25.199147542317707" y="45" x="97.5352274576823" class="er attributeBoxEven"/><text style="dominant-baseline: middle; font-size: 10.2px;" transform="translate(102.5352274576823,55.5)" y="0" x="0" id="text-entity-habitweekdays-c488fb80-c3d4-506f-b902-5c8dc46a0a5a-attr-2-key" class="er entityLabel"/></g><g transform="translate(20,196.5 )" id="entity-days-1423ac63-3526-5a52-8359-97be9f67b867"><rect height="66" width="108.07012939453125" y="0" x="0" class="er entityBox"/><text style="dominant-baseline: middle; text-anchor: middle; font-size: 12px;" transform="translate(54.035064697265625,12)" y="0" x="0" id="text-entity-days-1423ac63-3526-5a52-8359-97be9f67b867" class="er entityLabel">days</text><rect height="21" width="54.113128662109375" y="24" x="0" class="er attributeBoxOdd"/><text style="dominant-baseline: middle; font-size: 10.2px;" transform="translate(5,34.5)" y="0" x="0" id="text-entity-days-1423ac63-3526-5a52-8359-97be9f67b867-attr-1-type" class="er entityLabel">String</text><rect height="21" width="30.162017822265625" y="24" x="54.113128662109375" class="er attributeBoxOdd"/><text style="dominant-baseline: middle; font-size: 10.2px;" transform="translate(59.113128662109375,34.5)" y="0" x="0" id="text-entity-days-1423ac63-3526-5a52-8359-97be9f67b867-attr-1-name" class="er entityLabel">id</text><rect height="21" width="23.79498291015625" y="24" x="84.275146484375" class="er attributeBoxOdd"/><text style="dominant-baseline: middle; font-size: 10.2px;" transform="translate(89.275146484375,34.5)" y="0" x="0" id="text-entity-days-1423ac63-3526-5a52-8359-97be9f67b867-attr-1-key" class="er entityLabel">PK</text><rect height="21" width="54.113128662109375" y="45" x="0" class="er attributeBoxEven"/><text style="dominant-baseline: middle; font-size: 10.2px;" transform="translate(5,55.5)" y="0" x="0" id="text-entity-days-1423ac63-3526-5a52-8359-97be9f67b867-attr-2-type" class="er entityLabel">DateTime</text><rect height="21" width="30.162017822265625" y="45" x="54.113128662109375" class="er attributeBoxEven"/><text style="dominant-baseline: middle; font-size: 10.2px;" transform="translate(59.113128662109375,55.5)" y="0" x="0" id="text-entity-days-1423ac63-3526-5a52-8359-97be9f67b867-attr-2-name" class="er entityLabel">date</text><rect height="21" width="23.79498291015625" y="45" x="84.275146484375" class="er attributeBoxEven"/><text style="dominant-baseline: middle; font-size: 10.2px;" transform="translate(89.275146484375,55.5)" y="0" x="0" id="text-entity-days-1423ac63-3526-5a52-8359-97be9f67b867-attr-2-key" class="er entityLabel"/></g><g transform="translate(74.03506469726562,30.5 )" id="entity-dayhabits-469d66ca-4756-5919-88f9-7358685a3ac0"><rect height="45" width="100" y="0" x="0" class="er entityBox"/><text style="dominant-baseline: middle; text-anchor: middle; font-size: 12px;" transform="translate(50,12)" y="0" x="0" id="text-entity-dayhabits-469d66ca-4756-5919-88f9-7358685a3ac0" class="er entityLabel">day_habits</text><rect height="21" width="43.94526163736979" y="24" x="0" class="er attributeBoxOdd"/><text style="dominant-baseline: middle; font-size: 10.2px;" transform="translate(5,34.5)" y="0" x="0" id="text-entity-dayhabits-469d66ca-4756-5919-88f9-7358685a3ac0-attr-1-type" class="er entityLabel">String</text><rect height="21" width="25.261545817057293" y="24" x="43.94526163736979" class="er attributeBoxOdd"/><text style="dominant-baseline: middle; font-size: 10.2px;" transform="translate(48.94526163736979,34.5)" y="0" x="0" id="text-entity-dayhabits-469d66ca-4756-5919-88f9-7358685a3ac0-attr-1-name" class="er entityLabel">id</text><rect height="21" width="30.793192545572918" y="24" x="69.20680745442708" class="er attributeBoxOdd"/><text style="dominant-baseline: middle; font-size: 10.2px;" transform="translate(74.20680745442708,34.5)" y="0" x="0" id="text-entity-dayhabits-469d66ca-4756-5919-88f9-7358685a3ac0-attr-1-key" class="er entityLabel">PK</text></g><g transform="translate(74.03506469726562,373 )" id="entity-DayHabit-5ce25473-23d3-58c3-9cc5-32233c8c58f9"><rect height="75" width="100" y="0" x="0" class="er entityBox"/><text style="dominant-baseline: middle; text-anchor: middle; font-size: 12px;" transform="translate(50,37.5)" y="0" x="0" id="text-entity-DayHabit-5ce25473-23d3-58c3-9cc5-32233c8c58f9" class="er entityLabel">DayHabit</text></g><g transform="translate(332.8848419189453,373 )" id="entity-HabitWeekDays-fb0bb2ac-dc87-539a-bfb2-12a56bcecb4e"><rect height="75" width="115.8125" y="0" x="0" class="er entityBox"/><text style="dominant-baseline: middle; text-anchor: middle; font-size: 12px;" transform="translate(57.90625,37.5)" y="0" x="0" id="text-entity-HabitWeekDays-fb0bb2ac-dc87-539a-bfb2-12a56bcecb4e" class="er entityLabel">HabitWeekDays</text></g><rect height="14" width="53.375" y="317.13861083984375" x="205.89230346679688" class="er relationshipLabelBox"/><text style="text-anchor: middle; dominant-baseline: middle; font-size: 12px;" y="324.13861083984375" x="232.57980346679688" id="rel1" class="er relationshipLabel">dayHabits</text><rect height="14" width="56.359375" y="313.8293151855469" x="357.5498352050781" class="er relationshipLabelBox"/><text style="text-anchor: middle; dominant-baseline: middle; font-size: 12px;" y="320.8293151855469" x="385.7295227050781" id="rel2" class="er relationshipLabel">weekDays</text><rect height="14" width="26.6875" y="131.1707000732422" x="372.3857727050781" class="er relationshipLabelBox"/><text style="text-anchor: middle; dominant-baseline: middle; font-size: 12px;" y="138.1707000732422" x="385.7295227050781" id="rel3" class="er relationshipLabel">habit</text><rect height="14" width="53.375" y="313.2994689941406" x="51.86841583251953" class="er relationshipLabelBox"/><text style="text-anchor: middle; dominant-baseline: middle; font-size: 12px;" y="320.2994689941406" x="78.55591583251953" id="rel4" class="er relationshipLabel">dayHabits</text><rect height="14" width="19.359375" y="125.74607849121094" x="71.46121978759766" class="er relationshipLabelBox"/><text style="text-anchor: middle; dominant-baseline: middle; font-size: 12px;" y="132.74607849121094" x="81.14090728759766" id="rel5" class="er relationshipLabel">day</text><rect height="14" width="26.6875" y="121.92466735839844" x="211.0138397216797" class="er relationshipLabelBox"/><text style="text-anchor: middle; dominant-baseline: middle; font-size: 12px;" y="128.92466735839844" x="224.3575897216797" id="rel6" class="er relationshipLabel">habit</text></svg>